<svg width="115" height="115" viewBox="0 0 115 115" fill="none" xmlns="http://www.w3.org/2000/svg">
<circle cx="3.5" cy="3.5" r="3.5" fill="#8322FF"/>
<circle cx="30.5" cy="3.5" r="3.5" fill="#8322FF"/>
<circle cx="57.5" cy="3.5" r="3.5" fill="#8322FF"/>
<circle cx="84.5" cy="3.5" r="3.5" fill="#8322FF"/>
<circle cx="111.5" cy="3.5" r="3.5" fill="#8322FF"/>
<circle cx="3.5" cy="30.5" r="3.5" fill="#8322FF"/>
<circle cx="30.5" cy="30.5" r="3.5" fill="#8322FF"/>
<circle cx="57.5" cy="30.5" r="3.5" fill="#8322FF"/>
<circle cx="84.5" cy="30.5" r="3.5" fill="#8322FF"/>
<circle cx="111.5" cy="30.5" r="3.5" fill="#8322FF"/>
<circle cx="3.5" cy="57.5" r="3.5" fill="#8322FF"/>
<circle cx="30.5" cy="57.5" r="3.5" fill="#8322FF"/>
<circle cx="57.5" cy="57.5" r="3.5" fill="#8322FF"/>
<circle cx="84.5" cy="57.5" r="3.5" fill="#8322FF"/>
<circle cx="111.5" cy="57.5" r="3.5" fill="#8322FF"/>
<circle cx="3.5" cy="84.5" r="3.5" fill="#8322FF"/>
<circle cx="30.5" cy="84.5" r="3.5" fill="#8322FF"/>
<circle cx="57.5" cy="84.5" r="3.5" fill="#8322FF"/>
<circle cx="84.5" cy="84.5" r="3.5" fill="#8322FF"/>
<circle cx="111.5" cy="84.5" r="3.5" fill="#8322FF"/>
<circle cx="3.5" cy="111.5" r="3.5" fill="#8322FF"/>
<circle cx="30.5" cy="111.5" r="3.5" fill="#8322FF"/>
<circle cx="57.5" cy="111.5" r="3.5" fill="#8322FF"/>
<circle cx="84.5" cy="111.5" r="3.5" fill="#8322FF"/>
<circle cx="111.5" cy="111.5" r="3.5" fill="#8322FF"/>
</svg>
