<svg width="739" height="307" viewBox="0 0 739 307" fill="none" xmlns="http://www.w3.org/2000/svg">
<g filter="url(#filter0_d)">
<path d="M618.606 172.294C604.006 172.294 589.406 172.29 574.806 172.281H572.042C571.859 172.281 571.522 172.214 571.349 172.281C571.285 172.306 572.024 172.409 571.786 172.385C571.595 172.366 572.22 172.577 571.926 172.475C571.685 172.388 572.036 172.65 571.956 172.516C571.876 172.382 571.791 172.242 571.716 172.099C571.669 172.008 571.422 171.45 571.568 171.798C571.346 171.27 571.165 170.723 570.995 170.177C570.518 168.678 570.143 167.149 569.785 165.62C567.338 155.177 565.744 144.509 564.092 133.92C563.049 127.227 562.044 120.528 561.076 113.822C560.567 110.342 560.065 106.86 559.572 103.377C559.395 102.142 559.077 101.055 557.925 100.403C557.421 100.127 556.854 99.9886 556.281 100.001C555.707 100.013 555.147 100.175 554.655 100.472C553.583 101.126 553.302 102.226 553.092 103.383C552.777 105.11 552.482 106.844 552.22 108.582C551.827 111.179 551.505 113.785 551.253 116.401C550.71 122.049 550.164 127.696 549.616 133.342C548.144 148.59 547.256 163.885 546.012 179.153C545.706 182.925 545.745 187.468 543.603 190.668C543.647 190.602 543.679 190.533 543.754 190.617C543.498 190.345 543.274 190.045 543.086 189.721C542.513 188.713 542.15 187.596 541.826 186.489C540.877 183.241 540.186 179.895 539.572 176.568C539.124 174.133 539.346 170.369 536.46 169.446C535.967 169.29 535.447 169.239 534.934 169.295C534.42 169.352 533.924 169.516 533.477 169.776C532.236 170.516 531.88 171.811 531.62 173.146C531.368 174.434 531.096 175.641 530.245 176.687C529.355 177.781 528.497 177.971 527.835 176.574C527.112 175.051 526.648 173.326 526.218 171.7C526 170.873 525.806 170.038 525.637 169.198C525.471 168.37 525.446 167.44 525.047 166.678C523.955 164.582 520.934 164.33 519.558 166.262C518.739 167.414 518.435 169.022 518.216 170.389C517.905 172.322 517.675 174.273 517.407 176.213C516.504 182.746 515.737 189.309 514.751 195.829C514.429 197.963 514.083 200.296 513.005 202.2C512.632 202.86 512.145 203.509 511.427 203.811C511.104 203.946 510.808 203.942 510.472 203.98C510.164 204.012 510.675 203.97 510.618 204.012C510.561 204.055 510.427 203.929 510.389 203.956C510.573 203.825 510.527 204.203 510.34 203.915C510.172 203.655 510.552 204.172 510.252 203.845C510.148 203.733 510.041 203.625 509.938 203.509C510.034 203.618 509.927 203.519 509.758 203.237C509.546 202.883 509.358 202.524 509.185 202.152C509.112 202.02 509.052 201.881 509.008 201.737C508.9 201.456 508.795 201.174 508.698 200.89C506.587 194.756 505.967 188.009 505.226 181.602C504.204 172.797 503.456 163.963 502.586 155.143C501.81 147.26 501.059 139.324 499.568 131.537C499.038 128.762 498.691 123.715 495.045 123.508C494.014 123.45 492.98 123.802 492.254 124.555C491.174 125.676 491.247 127.468 491.07 128.912C490.642 132.406 490.28 135.907 489.963 139.414C489.407 145.54 488.994 151.679 488.376 157.801C488.101 160.524 487.994 163.4 487.25 166.044C486.969 167.086 486.575 168.095 486.077 169.052C485.825 169.525 485.166 170.9 484.51 170.875C484.051 170.861 482.902 169.221 482.41 168.788C481.749 168.212 480.979 167.742 480.089 167.679C478.642 167.574 477.566 168.523 476.786 169.645C475.06 172.127 474.576 175.72 472.525 177.831C472.314 178.048 472.348 178.072 472.015 178.215C472.128 178.165 471.649 178.283 471.7 178.268C471.331 178.382 471.934 178.285 471.641 178.244C471.927 178.285 471.7 178.277 471.586 178.177C471.808 178.369 471.175 177.71 471.221 177.77C470.23 176.488 469.606 174.849 468.982 173.366C468.188 171.476 467.461 169.553 466.571 167.705C465.927 166.361 465.139 164.772 463.832 163.962C460.24 161.749 457.884 167.618 456.76 169.992C456.421 170.707 456.037 171.382 455.66 172.074C455.537 172.299 455.555 172.074 455.785 172.064C455.248 172.089 454.71 172.176 454.17 172.205C451.097 172.37 448.008 172.249 444.932 172.273C432.38 172.369 419.827 172.279 407.281 172.119C399.981 172.026 109.299 171.921 102 171.804C100.157 171.775 100.156 174.654 102 174.683C116.482 174.906 414.347 175.134 428.831 175.199C434.496 175.224 440.158 175.168 445.823 175.147C448.782 175.137 451.762 175.265 454.716 175.051C455.538 174.992 456.498 175.005 457.205 174.532C457.873 174.083 458.297 173.312 458.663 172.613C459.53 170.955 460.191 169.189 461.206 167.61C461.514 167.143 461.902 166.736 462.352 166.406C462.335 166.418 462.24 166.323 462.292 166.389C462.431 166.573 462.506 166.523 462.788 166.869C463.713 167.982 464.438 169.834 465.05 171.283C465.83 173.138 466.545 175.025 467.41 176.842C468.617 179.38 470.847 182.645 473.932 180.393C476.56 178.473 477.239 174.672 478.736 171.955C479.036 171.411 479.23 171.05 479.595 170.717C479.57 170.74 479.996 170.477 479.786 170.561C479.977 170.487 479.681 170.439 479.855 170.539C480.029 170.64 479.731 170.423 480.079 170.602C479.971 170.546 480.515 170.939 480.626 171.044C481.104 171.492 481.491 172.031 481.972 172.477C482.874 173.315 484.018 173.952 485.277 173.65C487.388 173.146 488.547 170.72 489.294 168.894C490.265 166.517 490.542 164.085 490.837 161.551C491.546 155.482 491.983 149.387 492.495 143.299C492.775 139.953 493.079 136.608 493.438 133.269C493.629 131.512 493.833 129.758 494.051 128.005C494.125 127.42 494.117 125.894 495.171 126.446C495.951 126.856 496.151 129.156 496.33 129.959C496.678 131.515 496.971 133.083 497.235 134.661C497.867 138.424 498.34 142.213 498.771 146.004C499.772 154.832 500.521 163.684 501.401 172.523C502.176 180.313 502.928 188.164 504.455 195.848C504.959 198.374 505.544 200.92 506.576 203.289C507.211 204.748 508.189 206.419 509.864 206.786C514.321 207.762 516.389 202.327 517.097 198.982C517.628 196.472 517.874 193.909 518.194 191.366C518.645 187.777 519.179 184.196 519.674 180.612C520.174 176.993 520.392 173.177 521.29 169.633C521.398 169.205 521.621 167.538 522.326 167.819C522.708 167.973 522.665 168.791 522.723 169.117C522.9 170.101 523.111 171.078 523.357 172.047C523.778 173.709 524.301 175.344 524.923 176.941C525.496 178.402 526.235 179.877 527.856 180.362C530.508 181.155 532.691 178.714 533.657 176.523C533.919 175.933 534.118 175.315 534.249 174.682C534.379 174.045 534.381 173.164 534.681 172.585C534.973 172.021 535.688 172.009 536.003 172.556C536.243 172.972 536.218 173.804 536.29 174.257C536.429 175.139 536.578 176.019 536.737 176.898C537.082 178.802 537.47 180.697 537.901 182.583C538.491 185.169 540.242 195.69 544.965 193.182C546.611 192.308 547.272 190.143 547.701 188.459C548.104 186.805 548.379 185.121 548.522 183.424C549.236 175.843 549.724 168.232 550.276 160.636C550.826 153.075 551.381 145.516 552.056 137.965C552.618 131.68 553.336 125.412 553.877 119.125C554.081 116.745 554.308 114.368 554.613 111.999C554.774 110.745 554.959 109.494 555.157 108.245C555.284 107.452 555.416 106.661 555.552 105.87C555.626 105.444 555.701 105.017 555.778 104.59C555.838 104.254 555.846 103.229 556.088 102.991C556.546 102.544 556.688 103.301 556.757 103.733C557.043 105.534 557.273 107.344 557.533 109.149C558.035 112.635 558.542 116.122 559.055 119.609C560.881 131.988 562.735 144.378 565.032 156.681C565.79 160.74 566.572 164.809 567.625 168.802C567.952 170.037 568.294 171.276 568.771 172.464C569.111 173.318 569.503 174.327 570.311 174.848C570.897 175.226 571.552 175.166 572.213 175.166H575.117H585.434L610.693 175.173H637C638.842 175.173 638.846 172.294 637 172.294H618.606Z" fill="url(#paint0_linear)"/>
</g>
<defs>
<filter id="filter0_d" x="0.617188" y="0" width="737.766" height="306.901" filterUnits="userSpaceOnUse" color-interpolation-filters="sRGB">
<feFlood flood-opacity="0" result="BackgroundImageFix"/>
<feColorMatrix in="SourceAlpha" type="matrix" values="0 0 0 0 0 0 0 0 0 0 0 0 0 0 0 0 0 0 127 0"/>
<feOffset/>
<feGaussianBlur stdDeviation="50"/>
<feColorMatrix type="matrix" values="0 0 0 0 0.80505 0 0 0 0 0 0 0 0 0 0.627939 0 0 0 0.2 0"/>
<feBlend mode="normal" in2="BackgroundImageFix" result="effect1_dropShadow"/>
<feBlend mode="normal" in="SourceGraphic" in2="effect1_dropShadow" result="shape"/>
</filter>
<linearGradient id="paint0_linear" x1="-40.7112" y1="156.448" x2="991.925" y2="156.448" gradientUnits="userSpaceOnUse">
<stop stop-color="#FFCE22"/>
<stop offset="0.41698" stop-color="#F26F6F"/>
<stop offset="0.782796" stop-color="#FF7B01"/>
</linearGradient>
</defs>
</svg>
