<svg width="308" height="200" viewBox="0 0 308 200" fill="none" xmlns="http://www.w3.org/2000/svg">
<path d="M287.322 166.654C285.222 166.654 283.222 167.553 281.722 169.152C280.222 170.65 279.422 172.748 279.522 174.846C279.522 176.944 280.422 178.943 282.022 180.441C283.522 181.84 285.522 182.639 287.622 182.639C287.722 182.639 287.722 182.639 287.822 182.639C292.222 182.539 295.722 178.943 295.722 174.447C295.722 172.349 294.822 170.351 293.222 168.852C291.622 167.353 289.422 166.654 287.322 166.654ZM287.622 181.74C285.722 181.74 284.022 181.041 282.622 179.742C281.322 178.443 280.522 176.745 280.522 174.846C280.522 172.948 281.222 171.25 282.522 169.851C283.822 168.452 285.522 167.753 287.422 167.753H287.522C289.322 167.753 291.022 168.452 292.422 169.751C293.722 171.05 294.522 172.748 294.522 174.647C294.522 178.443 291.422 181.64 287.622 181.74Z" fill="url(#paint0_linear)"/>
<path d="M301.723 159.96L233.923 94.8204C239.023 78.2358 234.423 60.6521 222.123 48.7631C210.523 37.5734 194.223 33.3773 178.623 37.5734C177.123 37.973 176.023 39.072 175.623 40.5706C175.223 42.0692 175.623 43.6678 176.823 44.6668L200.323 67.246L197.323 87.9268L176.723 91.7233L153.223 69.1442C152.123 68.0452 150.523 67.6456 149.023 68.1451C147.523 68.5447 146.423 69.7436 146.123 71.3422C142.523 87.0276 147.323 103.113 158.923 114.302C171.223 126.092 189.023 129.888 205.423 124.293L273.223 189.533C277.123 193.229 282.123 195.228 287.423 195.228C287.523 195.228 287.723 195.228 287.823 195.228C293.323 195.128 298.423 192.93 302.223 188.933C306.023 184.937 308.023 179.842 307.923 174.347C307.823 168.852 305.623 163.757 301.723 159.96ZM301.523 188.234C297.923 192.03 293.023 194.129 287.823 194.228C282.623 194.328 277.623 192.43 273.923 188.734L205.623 123.094L205.323 123.194C189.223 128.889 171.623 125.192 159.523 113.503C148.123 102.613 143.523 86.9277 147.023 71.542C147.323 70.3431 148.123 69.4439 149.323 69.1442C150.423 68.8445 151.623 69.0443 152.523 69.9435L176.423 92.9222L198.223 88.826L201.423 66.9462L177.523 43.9675C176.623 43.1682 176.323 41.9693 176.623 40.7704C176.923 39.6715 177.723 38.7723 178.923 38.4726C194.223 34.3764 210.123 38.4726 221.423 49.3625C233.623 61.0517 238.023 78.4356 232.923 94.7205L232.823 95.0202L301.023 160.56C304.823 164.156 306.923 169.052 307.023 174.247C307.023 179.542 305.123 184.438 301.523 188.234Z" fill="url(#paint1_linear)"/>
<path d="M112.121 42.2693C115.021 44.4672 117.921 45.4663 120.721 45.4663C124.021 45.4663 127.021 44.0676 129.121 41.9695C132.821 38.273 134.421 31.5791 129.421 25.0851L129.321 24.9852C122.821 19.9899 116.121 21.4885 112.421 25.285C108.621 29.0814 107.021 35.6754 112.121 42.2693ZM113.121 25.9843C116.521 22.5875 122.721 21.1887 128.621 25.7845C133.221 31.779 131.821 37.8733 128.321 41.2702C124.921 44.667 118.721 46.0658 112.821 41.5699C108.221 35.5754 109.621 29.3812 113.121 25.9843Z" fill="url(#paint2_linear)"/>
<path d="M51.2226 105.311C41.3226 118.099 44.4226 131.187 51.7226 138.58C55.8226 142.676 61.6226 145.374 68.1226 145.374C73.4226 145.374 79.2226 143.575 84.9226 139.18L85.0226 139.08C94.8226 126.391 91.7226 113.303 84.4226 105.91C77.1226 98.6171 64.0226 95.5199 51.2226 105.311ZM84.3226 138.38C72.1226 147.772 59.5226 144.874 52.5226 137.781C45.5226 130.787 42.6226 118.199 51.9226 106.01C64.1226 96.6189 76.7226 99.5162 83.7226 106.61C90.7226 113.603 93.6226 126.192 84.3226 138.38Z" fill="url(#paint3_linear)"/>
<path d="M202.622 156.064H197.822C196.722 153.066 195.122 150.369 193.122 147.971L195.522 143.775C196.622 141.977 196.122 139.579 194.522 138.28C191.522 135.783 188.022 133.784 184.322 132.386C182.322 131.686 180.021 132.486 179.021 134.284L176.622 138.48C173.522 137.98 170.322 137.98 167.222 138.48L164.821 134.284C163.721 132.386 161.521 131.586 159.521 132.386C155.821 133.784 152.321 135.783 149.321 138.28C147.721 139.579 147.221 141.977 148.321 143.875L150.721 148.071C148.721 150.469 147.121 153.166 146.021 156.164H141.221C139.121 156.164 137.221 157.662 136.921 159.86C136.221 163.757 136.221 167.753 136.921 171.649C137.321 173.747 139.121 175.246 141.221 175.246H146.021C147.121 178.243 148.721 180.941 150.721 183.338L148.321 187.534C147.221 189.333 147.721 191.731 149.321 193.029C152.321 195.527 155.821 197.525 159.521 198.924C160.021 199.124 160.521 199.224 161.121 199.224C162.621 199.224 164.121 198.424 164.921 197.026L167.321 192.83C170.421 193.329 173.622 193.329 176.722 192.83L179.122 197.026C180.222 198.924 182.422 199.723 184.422 198.924C188.122 197.525 191.622 195.527 194.622 193.029C196.222 191.731 196.722 189.333 195.622 187.435L193.222 183.238C195.222 180.841 196.822 178.143 197.922 175.146H202.722C204.822 175.146 206.722 173.647 207.022 171.449C207.722 167.553 207.722 163.557 207.022 159.66C206.622 157.562 204.722 156.064 202.622 156.064ZM205.922 171.25C205.622 172.848 204.222 174.047 202.622 174.047H197.122L197.022 174.347C195.922 177.444 194.222 180.241 192.122 182.739L191.922 183.039L194.622 187.834C195.422 189.233 195.122 191.131 193.822 192.13C190.922 194.528 187.522 196.526 183.922 197.825C182.322 198.424 180.622 197.825 179.822 196.326L177.122 191.531L176.821 191.631C173.621 192.23 170.321 192.23 167.121 191.631L166.821 191.531L164.121 196.326C163.321 197.725 161.621 198.324 160.021 197.825C156.421 196.526 153.121 194.528 150.121 192.13C148.921 191.131 148.521 189.233 149.321 187.834L152.021 183.039L151.821 182.739C149.721 180.241 148.021 177.444 146.921 174.347L146.821 174.047H141.321C139.621 174.047 138.221 172.848 138.021 171.25C137.421 167.453 137.421 163.557 138.021 159.86C138.321 158.262 139.721 157.063 141.321 157.063H146.821L146.921 156.763C148.021 153.666 149.721 150.869 151.821 148.371L152.021 148.071L149.321 143.276C148.521 141.877 148.821 139.979 150.121 138.98C153.021 136.582 156.421 134.584 160.021 133.285C161.621 132.685 163.321 133.285 164.121 134.783L166.821 139.579L167.121 139.479C170.321 138.88 173.621 138.88 176.821 139.479L177.122 139.579L179.822 134.783C180.622 133.385 182.322 132.785 183.922 133.285C187.522 134.584 190.822 136.582 193.822 138.98C195.022 139.979 195.422 141.877 194.622 143.276L191.922 148.071L192.122 148.371C194.222 150.869 195.922 153.666 197.022 156.763L197.122 157.063H202.622C204.322 157.063 205.722 158.262 205.922 159.86C206.622 163.657 206.622 167.553 205.922 171.25Z" fill="url(#paint4_linear)"/>
<path d="M180.421 156.863C173.921 151.868 167.221 153.466 163.521 157.163C159.821 160.859 158.221 167.553 163.221 174.047L163.321 174.147C166.221 176.345 169.121 177.344 171.921 177.344C175.221 177.344 178.221 175.946 180.321 173.847C184.021 170.151 185.521 163.457 180.421 156.863ZM179.521 173.148C176.121 176.545 169.921 177.944 164.021 173.448C159.421 167.453 160.821 161.359 164.321 157.962C167.721 154.565 173.921 153.167 179.821 157.662C184.321 163.657 182.921 169.751 179.521 173.148Z" fill="url(#paint5_linear)"/>
<path d="M132.222 136.982L122.022 131.886C123.122 125.492 123.122 118.998 122.022 112.604L132.222 107.509C135.522 105.611 136.922 101.514 135.522 97.8178C132.722 90.125 127.222 83.0315 122.222 77.137C119.722 74.1398 115.522 73.4404 112.122 75.3386L103.322 80.4339C98.3219 76.2378 92.7219 73.0408 86.6219 70.7429V60.5523C86.6219 56.6559 83.8219 53.359 79.9219 52.6596C72.0219 51.3608 63.9219 51.3608 55.9219 52.6596C52.1219 53.359 49.4219 56.6559 49.4219 60.4524V70.643C43.3219 72.841 37.7219 76.038 32.7219 80.334L23.9219 75.2387C20.5219 73.3405 16.3219 74.0399 13.8219 77.0371C8.52192 83.3313 3.32192 90.2249 0.521919 97.7179C-0.878081 101.415 0.621919 105.411 4.02192 107.409L14.1219 112.504C13.0219 118.898 13.0219 125.392 14.1219 131.786L4.02192 136.882C0.621919 138.88 -0.778081 142.976 0.521919 146.573C3.32192 154.066 8.52192 160.959 13.8219 167.254C16.2219 170.151 20.6219 170.95 23.9219 169.052L32.7219 163.957C37.7219 168.153 43.3219 171.35 49.4219 173.648V183.838C49.4219 187.735 52.2219 191.032 56.1219 191.731C60.0219 192.43 64.0219 192.73 68.0219 192.73C72.0219 192.73 76.0219 192.43 80.0219 191.731C83.8219 191.032 86.6219 187.735 86.6219 183.838V173.648C92.7219 171.45 98.3219 168.253 103.322 163.957L112.122 169.052C115.522 170.95 119.722 170.251 122.222 167.254C127.222 161.259 132.822 154.266 135.622 146.573C137.122 142.976 135.622 138.88 132.222 136.982ZM134.822 146.373C132.022 153.966 126.522 160.859 121.622 166.754C119.422 169.352 115.722 169.951 112.822 168.253L103.422 162.858L103.122 163.057C98.0219 167.353 92.3219 170.75 86.1219 172.848L85.8219 172.948V183.838C85.8219 187.235 83.4219 190.132 80.1219 190.732C72.2219 192.031 64.3219 192.031 56.5219 190.732C53.1219 190.132 50.7219 187.235 50.7219 183.838V172.948L50.4219 172.848C44.1219 170.65 38.4219 167.353 33.4219 163.057L33.1219 162.858L23.7219 168.253C20.8219 169.951 17.0219 169.252 14.9219 166.754C9.72192 160.56 4.52192 153.766 1.82192 146.373C0.62192 143.176 1.92192 139.579 4.82192 137.881L15.6219 132.486L15.5219 132.086C14.3219 125.592 14.3219 118.998 15.5219 112.404L15.6219 112.005L4.52192 106.61C1.52192 104.911 0.221919 101.315 1.42192 98.1176C4.12192 90.7244 9.32192 83.9307 14.5219 77.7364C16.7219 75.1388 20.4219 74.5394 23.3219 76.2378L32.7219 81.6328L33.0219 81.433C38.1219 77.137 43.8219 73.7401 50.0219 71.6421L50.3219 71.5422V60.6522C50.3219 57.2554 52.7219 54.3581 56.0219 53.7586C63.8219 52.4598 71.8219 52.3599 79.6219 53.7586C83.0219 54.3581 85.4219 57.2554 85.4219 60.6522V71.5422L85.7219 71.6421C92.0219 73.84 97.7219 77.137 102.722 81.433L103.022 81.6328L112.422 76.2378C115.322 74.5394 119.122 75.2387 121.222 77.7364C126.122 83.631 131.522 90.6245 134.322 98.1176C135.522 101.315 134.322 104.911 131.422 106.61L120.522 112.005L120.622 112.404C121.822 118.898 121.822 125.592 120.622 132.086L120.522 132.486L131.422 137.881C134.722 139.579 136.022 143.076 134.822 146.373Z" fill="url(#paint6_linear)"/>
<path d="M89.9223 43.1682H94.7223C95.8223 46.1655 97.4223 48.863 99.4223 51.2607L97.0223 55.4568C95.9223 57.2552 96.4223 59.653 98.0223 60.9517C101.022 63.4494 104.522 65.4476 108.222 66.8463C108.722 67.0461 109.222 67.146 109.822 67.146C111.322 67.146 112.822 66.3467 113.622 64.948L116.022 60.7519C119.122 61.2515 122.322 61.2515 125.422 60.7519L127.822 64.948C128.922 66.8463 131.122 67.6455 133.122 66.8463C136.822 65.4476 140.322 63.4494 143.322 60.9517C144.922 59.653 145.422 57.2552 144.322 55.3569L141.922 51.1608C143.922 48.7631 145.522 46.0656 146.622 43.0683H151.422C153.522 43.0683 155.422 41.5697 155.722 39.3718C156.422 35.4754 156.422 31.4791 155.722 27.5827C155.322 25.4847 153.522 23.9861 151.422 23.9861H146.622C145.522 20.9888 143.922 18.2913 141.922 15.8936L144.322 11.6975C145.422 9.89912 144.922 7.50135 143.322 6.20255C140.322 3.70487 136.822 1.70673 133.122 0.308024C131.122 -0.391327 128.822 0.407932 127.822 2.20626L125.422 6.40237C122.322 5.90283 119.122 5.90283 116.022 6.40237L113.622 2.20626C112.522 0.308025 110.322 -0.491235 108.322 0.308024C104.622 1.70673 101.122 3.70487 98.1223 6.20255C96.5223 7.50135 96.0223 9.89912 97.1223 11.7974L99.5223 15.9935C97.5223 18.3912 95.9223 21.0887 94.8223 24.086H90.0223C87.9223 24.086 86.0223 25.5846 85.7223 27.7825C85.0223 31.6789 85.0223 35.6752 85.7223 39.5716C86.0223 41.6696 87.8223 43.1682 89.9223 43.1682ZM86.6223 27.9823C86.9223 26.3838 88.3223 25.1849 89.9223 25.1849H95.4223L95.5223 24.8852C96.6223 21.7881 98.3223 18.9907 100.422 16.493L100.622 16.1933L97.9223 11.3977C97.1223 9.99903 97.4223 8.10079 98.7223 7.10172C101.622 4.70395 105.022 2.7058 108.622 1.40701C110.222 0.807562 111.922 1.40701 112.722 2.90561L115.422 7.70116L115.722 7.60126C118.922 7.00181 122.222 7.00181 125.422 7.60126L125.722 7.70116L128.422 2.90561C129.222 1.50691 130.922 0.90747 132.522 1.40701C136.122 2.7058 139.422 4.70395 142.422 7.10172C143.622 8.10079 144.022 9.99903 143.222 11.3977L140.522 16.1933L140.722 16.493C142.822 18.9907 144.522 21.7881 145.622 24.8852L145.722 25.1849H151.222C152.922 25.1849 154.322 26.3838 154.522 27.9823C155.122 31.7788 155.122 35.6752 154.522 39.3718C154.222 40.9703 152.822 42.1692 151.222 42.1692H145.722L145.622 42.4689C144.522 45.566 142.822 48.3634 140.722 50.8611L140.522 51.1608L143.222 55.9564C144.022 57.3551 143.722 59.2533 142.422 60.2524C139.522 62.6502 136.122 64.6483 132.522 65.9471C130.922 66.5466 129.222 65.9471 128.422 64.4485L125.722 59.6529L125.422 59.7529C122.222 60.3523 118.922 60.3523 115.722 59.7529L115.422 59.6529L112.722 64.4485C111.922 65.8472 110.222 66.4466 108.622 65.9471C105.022 64.6483 101.722 62.6502 98.7223 60.2524C97.5223 59.2533 97.1223 57.3551 97.9223 55.9564L100.622 51.1608L100.422 50.8611C98.3223 48.3634 96.6223 45.566 95.5223 42.4689L95.4223 42.1692H89.9223C88.2223 42.1692 86.8223 40.9703 86.6223 39.3718C86.0223 35.5753 86.0223 31.6789 86.6223 27.9823Z" fill="url(#paint7_linear)"/>
<defs>
<linearGradient id="paint0_linear" x1="2.00011" y1="174.689" x2="312" y2="174.689" gradientUnits="userSpaceOnUse">
<stop offset="0.0830222" stop-color="#E8563D"/>
<stop offset="0.5309" stop-color="#FCAB35"/>
<stop offset="0.8912" stop-color="#E2491A"/>
</linearGradient>
<linearGradient id="paint1_linear" x1="-15.4992" y1="115.893" x2="313.501" y2="115.893" gradientUnits="userSpaceOnUse">
<stop offset="0.0830222" stop-color="#E8563D"/>
<stop offset="0.5309" stop-color="#FCAB35"/>
<stop offset="0.8912" stop-color="#E2491A"/>
</linearGradient>
<linearGradient id="paint2_linear" x1="1.49937" y1="33.6419" x2="301" y2="33.6419" gradientUnits="userSpaceOnUse">
<stop offset="0.0830222" stop-color="#E8563D"/>
<stop offset="0.5309" stop-color="#FCAB35"/>
<stop offset="0.8912" stop-color="#E2491A"/>
</linearGradient>
<linearGradient id="paint3_linear" x1="2.00047" y1="121.887" x2="213.001" y2="121.887" gradientUnits="userSpaceOnUse">
<stop offset="0.0830222" stop-color="#E8563D"/>
<stop offset="0.5309" stop-color="#FCAB35"/>
<stop offset="0.8912" stop-color="#E2491A"/>
</linearGradient>
<linearGradient id="paint4_linear" x1="0.499457" y1="165.585" x2="306.5" y2="165.585" gradientUnits="userSpaceOnUse">
<stop offset="0.0830222" stop-color="#E8563D"/>
<stop offset="0.5309" stop-color="#FCAB35"/>
<stop offset="0.8912" stop-color="#E2491A"/>
</linearGradient>
<linearGradient id="paint5_linear" x1="-8.00092" y1="165.553" x2="308.999" y2="165.553" gradientUnits="userSpaceOnUse">
<stop offset="0.0830222" stop-color="#E8563D"/>
<stop offset="0.5309" stop-color="#FCAB35"/>
<stop offset="0.8912" stop-color="#E2491A"/>
</linearGradient>
<linearGradient id="paint6_linear" x1="0.0374192" y1="122.25" x2="307.5" y2="122.25" gradientUnits="userSpaceOnUse">
<stop offset="0.0830222" stop-color="#E8563D"/>
<stop offset="0.5309" stop-color="#FCAB35"/>
<stop offset="0.8912" stop-color="#E2491A"/>
</linearGradient>
<linearGradient id="paint7_linear" x1="-4.99953" y1="33.6482" x2="295.001" y2="33.6482" gradientUnits="userSpaceOnUse">
<stop offset="0.0830222" stop-color="#E8563D"/>
<stop offset="0.5309" stop-color="#FCAB35"/>
<stop offset="0.8912" stop-color="#E2491A"/>
</linearGradient>
</defs>
</svg>
