<?xml version="1.0" encoding="utf-8"?>
<!-- Generator: Adobe Illustrator 24.0.1, SVG Export Plug-In . SVG Version: 6.00 Build 0)  -->
<svg version="1.1" id="Слой_1" xmlns="http://www.w3.org/2000/svg" xmlns:xlink="http://www.w3.org/1999/xlink" x="0px" y="0px"
	 viewBox="0 0 1080 1080" style="enable-background:new 0 0 1080 1080;" xml:space="preserve">
<style type="text/css">
	.st0{fill-rule:evenodd;clip-rule:evenodd;fill:#F77344;}
	.st1{fill:none;stroke:#FFFFFF;stroke-width:40;stroke-linecap:round;stroke-linejoin:round;stroke-miterlimit:10;}
</style>
<g>
	<path class="st0" d="M540,0C241.8,0,0,241.8,0,540s241.8,540,540,540s540-241.8,540-540S838.2,0,540,0z"/>
</g>
<path class="st1" d="M540,634c-51.7,0-94-42.1-94-94s42.2-94,94-94s94,42.1,94,94S591.7,634,540,634z M672.4,405.8
	c0,2.7-2.2,4.9-4.9,4.9c-2.7,0-4.9-2.2-4.9-4.9c0-2.7,2.2-4.9,4.9-4.9C670.2,400.9,672.4,403.1,672.4,405.8z M759.8,706.2
	c-9.8,24.7-28.8,43.7-53.6,53.6C669.1,774.5,581,771.1,540,771.1s-129.2,3.3-166.2-11.3c-24.7-9.8-43.7-28.8-53.6-53.6
	C305.5,669.1,308.9,581,308.9,540s-3.3-129.2,11.3-166.2c9.8-24.7,28.8-43.7,53.6-53.6c37.1-14.7,125.2-11.3,166.2-11.3
	s129.2-3.3,166.2,11.3c24.7,9.8,43.7,28.8,53.6,53.6c14.7,37.1,11.3,125.2,11.3,166.2S774.5,669.2,759.8,706.2z"/>
</svg>
