<?xml version="1.0" encoding="utf-8"?>
<!-- Generator: Adobe Illustrator 24.0.1, SVG Export Plug-In . SVG Version: 6.00 Build 0)  -->
<svg version="1.1" id="Слой_1" xmlns="http://www.w3.org/2000/svg" xmlns:xlink="http://www.w3.org/1999/xlink" x="0px" y="0px"
	 viewBox="0 0 1080 1080" style="enable-background:new 0 0 1080 1080;" xml:space="preserve">
<style type="text/css">
	.st0{fill:#FFFFFF;}
</style>
<path class="st0" d="M748.8,748.8c-25.8,0-49.7,8.4-69,22.7L433.9,593.9c8.5-16.1,13.3-34.4,13.3-53.9s-4.8-37.8-13.3-53.9
	l245.9-177.6c19.3,14.3,43.1,22.7,69,22.7c64.1,0,116-51.9,116-116s-51.9-116-116-116s-116,51.9-116,116c0,16.5,3.4,32.1,9.6,46.3
	L392.9,441.7c-17.9-11.2-39-17.7-61.7-17.7c-64.1,0-116,51.9-116,116s51.9,116,116,116c22.7,0,43.8-6.5,61.7-17.7l249.6,180.2
	c-6.2,14.2-9.6,29.8-9.6,46.3c0,64.1,51.9,116,116,116s116-51.9,116-116S812.9,748.8,748.8,748.8z"/>
</svg>
