<svg width="530" height="438" viewBox="0 0 530 438" fill="none" xmlns="http://www.w3.org/2000/svg">
<g filter="url(#filter0_d)">
<path fill-rule="evenodd" clip-rule="evenodd" d="M115 338H415C423.284 338 430 331.284 430 323V115C430 106.716 423.284 100 415 100H115C106.716 100 100 106.716 100 115V125.5H101V126.5H100V323C100 331.284 106.716 338 115 338ZM101 126.5L429 126.5V323C429 330.732 422.732 337 415 337H115C107.268 337 101 330.732 101 323V126.5ZM101 125.5V115C101 107.268 107.268 101 115 101H415C422.732 101 429 107.268 429 115V125.5L101 125.5ZM352 261C356.971 261 361 265.029 361 270V271C361 275.971 356.971 280 352 280H178C173.029 280 169 275.971 169 271V270C169 265.029 173.029 261 178 261H352ZM168 270C168 264.477 172.477 260 178 260H352C357.523 260 362 264.477 362 270V271C362 276.523 357.523 281 352 281H178C172.477 281 168 276.523 168 271V270ZM178 295C173.029 295 169 299.029 169 304V305C169 309.971 173.029 314 178 314H352C356.971 314 361 309.971 361 305V304C361 299.029 356.971 295 352 295H178ZM178 294C172.477 294 168 298.477 168 304V305C168 310.523 172.477 315 178 315H352C357.523 315 362 310.523 362 305V304C362 298.477 357.523 294 352 294H178ZM310 271.5L178 271.5V270.5L310 270.5V271.5ZM125 113C125 114.657 123.657 116 122 116C120.343 116 119 114.657 119 113C119 111.343 120.343 110 122 110C123.657 110 125 111.343 125 113ZM126 113C126 115.209 124.209 117 122 117C119.791 117 118 115.209 118 113C118 110.791 119.791 109 122 109C124.209 109 126 110.791 126 113ZM136 116C137.657 116 139 114.657 139 113C139 111.343 137.657 110 136 110C134.343 110 133 111.343 133 113C133 114.657 134.343 116 136 116ZM136 117C138.209 117 140 115.209 140 113C140 110.791 138.209 109 136 109C133.791 109 132 110.791 132 113C132 115.209 133.791 117 136 117ZM153 113C153 114.657 151.657 116 150 116C148.343 116 147 114.657 147 113C147 111.343 148.343 110 150 110C151.657 110 153 111.343 153 113ZM154 113C154 115.209 152.209 117 150 117C147.791 117 146 115.209 146 113C146 110.791 147.791 109 150 109C152.209 109 154 110.791 154 113ZM182 308C183.657 308 185 306.657 185 305C185 303.343 183.657 302 182 302C180.343 302 179 303.343 179 305C179 306.657 180.343 308 182 308ZM182 309C184.209 309 186 307.209 186 305C186 302.791 184.209 301 182 301C179.791 301 178 302.791 178 305C178 307.209 179.791 309 182 309ZM217 305C217 306.657 215.657 308 214 308C212.343 308 211 306.657 211 305C211 303.343 212.343 302 214 302C215.657 302 217 303.343 217 305ZM218 305C218 307.209 216.209 309 214 309C211.791 309 210 307.209 210 305C210 302.791 211.791 301 214 301C216.209 301 218 302.791 218 305ZM246 308C247.657 308 249 306.657 249 305C249 303.343 247.657 302 246 302C244.343 302 243 303.343 243 305C243 306.657 244.343 308 246 308ZM246 309C248.209 309 250 307.209 250 305C250 302.791 248.209 301 246 301C243.791 301 242 302.791 242 305C242 307.209 243.791 309 246 309ZM201 305C201 306.657 199.657 308 198 308C196.343 308 195 306.657 195 305C195 303.343 196.343 302 198 302C199.657 302 201 303.343 201 305ZM202 305C202 307.209 200.209 309 198 309C195.791 309 194 307.209 194 305C194 302.791 195.791 301 198 301C200.209 301 202 302.791 202 305ZM230 308C231.657 308 233 306.657 233 305C233 303.343 231.657 302 230 302C228.343 302 227 303.343 227 305C227 306.657 228.343 308 230 308ZM230 309C232.209 309 234 307.209 234 305C234 302.791 232.209 301 230 301C227.791 301 226 302.791 226 305C226 307.209 227.791 309 230 309ZM265 305C265 306.657 263.657 308 262 308C260.343 308 259 306.657 259 305C259 303.343 260.343 302 262 302C263.657 302 265 303.343 265 305ZM266 305C266 307.209 264.209 309 262 309C259.791 309 258 307.209 258 305C258 302.791 259.791 301 262 301C264.209 301 266 302.791 266 305ZM265 241C292.614 241 315 218.614 315 191C315 163.386 292.614 141 265 141C237.386 141 215 163.386 215 191C215 218.614 237.386 241 265 241ZM265 242C293.167 242 316 219.167 316 191C316 162.833 293.167 140 265 140C236.833 140 214 162.833 214 191C214 219.167 236.833 242 265 242ZM279.75 177.127C279.75 185.261 273.144 191.863 265 191.863C256.856 191.863 250.25 185.261 250.25 177.127C250.25 168.993 256.856 162.392 265 162.392C273.144 162.392 279.75 168.993 279.75 177.127ZM265 198.108C267.844 198.108 270.545 197.474 272.973 196.359H279C286.733 196.359 293 202.621 293 210.347V212.095C293 214.991 290.648 217.34 287.75 217.34H242.25C239.352 217.34 237 214.991 237 212.095V210.347C237 202.621 243.267 196.359 251 196.359H257.027C259.466 197.474 262.156 198.108 265 198.108ZM273.189 197.359H279C286.181 197.359 292 203.174 292 210.347V212.095C292 214.438 290.097 216.34 287.75 216.34H242.25C239.903 216.34 238 214.438 238 212.095V210.347C238 203.174 243.819 197.359 251 197.359H256.812C259.321 198.474 262.083 199.108 265 199.108C267.915 199.108 270.688 198.475 273.189 197.359ZM265 192.863C273.695 192.863 280.75 185.815 280.75 177.127C280.75 168.44 273.695 161.392 265 161.392C256.305 161.392 249.25 168.44 249.25 177.127C249.25 185.815 256.305 192.863 265 192.863Z" fill="url(#paint0_linear)"/>
</g>
<defs>
<filter id="filter0_d" x="0" y="0" width="530" height="438" filterUnits="userSpaceOnUse" color-interpolation-filters="sRGB">
<feFlood flood-opacity="0" result="BackgroundImageFix"/>
<feColorMatrix in="SourceAlpha" type="matrix" values="0 0 0 0 0 0 0 0 0 0 0 0 0 0 0 0 0 0 127 0"/>
<feOffset/>
<feGaussianBlur stdDeviation="50"/>
<feColorMatrix type="matrix" values="0 0 0 0 0.80505 0 0 0 0 0 0 0 0 0 0.627939 0 0 0 0.2 0"/>
<feBlend mode="normal" in2="BackgroundImageFix" result="effect1_dropShadow"/>
<feBlend mode="normal" in="SourceGraphic" in2="effect1_dropShadow" result="shape"/>
</filter>
<linearGradient id="paint0_linear" x1="23.3909" y1="218.5" x2="616.503" y2="218.5" gradientUnits="userSpaceOnUse">
<stop stop-color="#FFCE22"/>
<stop offset="0.41698" stop-color="#F26F6F"/>
<stop offset="0.782796" stop-color="#FF7B01"/>
</linearGradient>
</defs>
</svg>
