<svg width="330" height="238" viewBox="0 0 330 238" fill="none" xmlns="http://www.w3.org/2000/svg">
<g clip-path="url(#clip0)">
<g filter="url(#filter0_d)">
<path fill-rule="evenodd" clip-rule="evenodd" d="M15 238H315C323.284 238 330 231.284 330 223V15C330 6.71573 323.284 0 315 0H15C6.71573 0 0 6.71574 0 15V25.5H1V26.5H0V223C0 231.284 6.71573 238 15 238ZM1 26.5L329 26.5V223C329 230.732 322.732 237 315 237H15C7.26802 237 1 230.732 1 223V26.5ZM1 25.5V15C1 7.26802 7.26801 1 15 1H315C322.732 1 329 7.26801 329 15V25.5L1 25.5ZM252 161C256.971 161 261 165.029 261 170V171C261 175.971 256.971 180 252 180H78C73.0294 180 69 175.971 69 171V170C69 165.029 73.0294 161 78 161H252ZM68 170C68 164.477 72.4771 160 78 160H252C257.523 160 262 164.477 262 170V171C262 176.523 257.523 181 252 181H78C72.4771 181 68 176.523 68 171V170ZM78 195C73.0294 195 69 199.029 69 204V205C69 209.971 73.0294 214 78 214H252C256.971 214 261 209.971 261 205V204C261 199.029 256.971 195 252 195H78ZM78 194C72.4771 194 68 198.477 68 204V205C68 210.523 72.4771 215 78 215H252C257.523 215 262 210.523 262 205V204C262 198.477 257.523 194 252 194H78ZM210 171.5L78 171.5V170.5L210 170.5V171.5ZM25 13C25 14.6569 23.6569 16 22 16C20.3431 16 19 14.6569 19 13C19 11.3431 20.3431 10 22 10C23.6569 10 25 11.3431 25 13ZM26 13C26 15.2091 24.2091 17 22 17C19.7909 17 18 15.2091 18 13C18 10.7909 19.7909 9 22 9C24.2091 9 26 10.7909 26 13ZM36 16C37.6569 16 39 14.6569 39 13C39 11.3431 37.6569 10 36 10C34.3431 10 33 11.3431 33 13C33 14.6569 34.3431 16 36 16ZM36 17C38.2091 17 40 15.2091 40 13C40 10.7909 38.2091 9 36 9C33.7909 9 32 10.7909 32 13C32 15.2091 33.7909 17 36 17ZM53 13C53 14.6569 51.6569 16 50 16C48.3431 16 47 14.6569 47 13C47 11.3431 48.3431 10 50 10C51.6569 10 53 11.3431 53 13ZM54 13C54 15.2091 52.2091 17 50 17C47.7909 17 46 15.2091 46 13C46 10.7909 47.7909 9 50 9C52.2091 9 54 10.7909 54 13ZM82 208C83.6569 208 85 206.657 85 205C85 203.343 83.6569 202 82 202C80.3431 202 79 203.343 79 205C79 206.657 80.3431 208 82 208ZM82 209C84.2091 209 86 207.209 86 205C86 202.791 84.2091 201 82 201C79.7909 201 78 202.791 78 205C78 207.209 79.7909 209 82 209ZM117 205C117 206.657 115.657 208 114 208C112.343 208 111 206.657 111 205C111 203.343 112.343 202 114 202C115.657 202 117 203.343 117 205ZM118 205C118 207.209 116.209 209 114 209C111.791 209 110 207.209 110 205C110 202.791 111.791 201 114 201C116.209 201 118 202.791 118 205ZM146 208C147.657 208 149 206.657 149 205C149 203.343 147.657 202 146 202C144.343 202 143 203.343 143 205C143 206.657 144.343 208 146 208ZM146 209C148.209 209 150 207.209 150 205C150 202.791 148.209 201 146 201C143.791 201 142 202.791 142 205C142 207.209 143.791 209 146 209ZM101 205C101 206.657 99.6569 208 98 208C96.3431 208 95 206.657 95 205C95 203.343 96.3431 202 98 202C99.6569 202 101 203.343 101 205ZM102 205C102 207.209 100.209 209 98 209C95.7909 209 94 207.209 94 205C94 202.791 95.7909 201 98 201C100.209 201 102 202.791 102 205ZM130 208C131.657 208 133 206.657 133 205C133 203.343 131.657 202 130 202C128.343 202 127 203.343 127 205C127 206.657 128.343 208 130 208ZM130 209C132.209 209 134 207.209 134 205C134 202.791 132.209 201 130 201C127.791 201 126 202.791 126 205C126 207.209 127.791 209 130 209ZM165 205C165 206.657 163.657 208 162 208C160.343 208 159 206.657 159 205C159 203.343 160.343 202 162 202C163.657 202 165 203.343 165 205ZM166 205C166 207.209 164.209 209 162 209C159.791 209 158 207.209 158 205C158 202.791 159.791 201 162 201C164.209 201 166 202.791 166 205ZM165 141C192.614 141 215 118.614 215 91C215 63.3858 192.614 41 165 41C137.386 41 115 63.3858 115 91C115 118.614 137.386 141 165 141ZM165 142C193.167 142 216 119.167 216 91C216 62.8335 193.167 40 165 40C136.833 40 114 62.8335 114 91C114 119.167 136.833 142 165 142ZM179.75 78.75C179.75 86.893 173.143 93.5 165 93.5C156.857 93.5 150.25 86.893 150.25 78.75C150.25 70.607 156.857 64 165 64C173.143 64 179.75 70.607 179.75 78.75ZM165 99.75C167.844 99.75 170.545 99.1156 172.973 98H179C186.733 98 193 104.267 193 112V113.75C193 116.648 190.648 119 187.75 119H142.25C139.352 119 137 116.648 137 113.75V112C137 104.267 143.267 98 151 98H157.027C159.466 99.1156 162.156 99.75 165 99.75ZM173.189 99H179C186.181 99 192 104.819 192 112V113.75C192 116.096 190.096 118 187.75 118H142.25C139.904 118 138 116.096 138 113.75V112C138 104.819 143.819 99 151 99H156.812C159.321 100.116 162.083 100.75 165 100.75C167.915 100.75 170.688 100.117 173.189 99ZM165 94.5C173.695 94.5 180.75 87.4453 180.75 78.75C180.75 70.0547 173.695 63 165 63C156.305 63 149.25 70.0547 149.25 78.75C149.25 87.4453 156.305 94.5 165 94.5Z" fill="url(#paint0_linear)"/>
</g>
</g>
<defs>
<filter id="filter0_d" x="-100" y="-100" width="530" height="438" filterUnits="userSpaceOnUse" color-interpolation-filters="sRGB">
<feFlood flood-opacity="0" result="BackgroundImageFix"/>
<feColorMatrix in="SourceAlpha" type="matrix" values="0 0 0 0 0 0 0 0 0 0 0 0 0 0 0 0 0 0 127 0"/>
<feOffset/>
<feGaussianBlur stdDeviation="50"/>
<feColorMatrix type="matrix" values="0 0 0 0 0.80505 0 0 0 0 0 0 0 0 0 0.627939 0 0 0 0.2 0"/>
<feBlend mode="normal" in2="BackgroundImageFix" result="effect1_dropShadow"/>
<feBlend mode="normal" in="SourceGraphic" in2="effect1_dropShadow" result="shape"/>
</filter>
<linearGradient id="paint0_linear" x1="-76.6091" y1="118.5" x2="516.503" y2="118.5" gradientUnits="userSpaceOnUse">
<stop stop-color="#FFCE22"/>
<stop offset="0.41698" stop-color="#F26F6F"/>
<stop offset="0.782796" stop-color="#FF7B01"/>
</linearGradient>
<clipPath id="clip0">
<rect width="330" height="238" fill="white"/>
</clipPath>
</defs>
</svg>
