<svg width="17" height="19" viewBox="0 0 17 19" fill="none" xmlns="http://www.w3.org/2000/svg">
<path d="M11.5 10.5938C10.9971 10.5938 10.5971 10.72 10.2341 10.8345C10.1835 10.8505 10.1337 10.8662 10.0843 10.8814C9.68008 11.0054 9.22218 11.125 8.5 11.125C7.77789 11.125 7.32087 11.0055 6.91705 10.8814C6.86804 10.8664 6.81849 10.8507 6.76824 10.8348C6.40503 10.7201 6.00482 10.5938 5.5 10.5938C2.74344 10.5938 0.5 12.8125 0.5 15.5562V16.4062C0.5 17.5662 1.44768 18.5 2.60714 18.5H14.3929C15.5523 18.5 16.5 17.5662 16.5 16.4062V15.5562C16.5 12.8125 14.2566 10.5938 11.5 10.5938ZM8.5 11.0625C11.434 11.0625 13.8214 8.70098 13.8214 5.78125C13.8214 2.86152 11.434 0.5 8.5 0.5C5.56598 0.5 3.17857 2.86152 3.17857 5.78125C3.17857 8.70098 5.56598 11.0625 8.5 11.0625Z" stroke="white"/>
</svg>
