<?xml version="1.0" encoding="utf-8"?>
<!-- Generator: Adobe Illustrator 24.0.1, SVG Export Plug-In . SVG Version: 6.00 Build 0)  -->
<svg version="1.1" id="Слой_1" xmlns="http://www.w3.org/2000/svg" xmlns:xlink="http://www.w3.org/1999/xlink" x="0px" y="0px"
	 viewBox="0 0 1080 1080" style="enable-background:new 0 0 1080 1080;" xml:space="preserve">
<style type="text/css">
	.st0{fill-rule:evenodd;clip-rule:evenodd;fill:#F67245;}
	.st1{fill:none;stroke:#FFFFFF;stroke-width:40;stroke-linecap:round;stroke-linejoin:round;stroke-miterlimit:10;}
</style>
<g>
	<path class="st0" d="M540,0C241.8,0,0,241.8,0,540s241.8,540,540,540s540-241.8,540-540S838.2,0,540,0z"/>
</g>
<path class="st1" d="M848,381c-7.4-28.5-29.2-51-56.8-58.6C741,308.6,540,308.6,540,308.6s-201,0-251.2,13.9
	c-27.6,7.6-49.4,30.1-56.8,58.6c-13.4,51.7-13.4,159.5-13.4,159.5s0,107.8,13.4,159.5c7.4,28.5,29.2,50,56.8,57.6
	C339,771.4,540,771.4,540,771.4s201,0,251.2-13.9c27.6-7.6,49.4-29.1,56.8-57.6c13.4-51.7,13.4-159.5,13.4-159.5
	S861.4,432.7,848,381z M474.2,638.4V442.6l168,97.9L474.2,638.4z"/>
</svg>
